<?xml version="1.0" encoding="utf-8"?>
<!-- Generator: Adobe Illustrator 24.1.1, SVG Export Plug-In . SVG Version: 6.00 Build 0)  -->
<svg version="1.1" id="Layer_1" xmlns="http://www.w3.org/2000/svg" xmlns:xlink="http://www.w3.org/1999/xlink" x="0px" y="0px"
	 viewBox="0 0 200 200" style="enable-background:new 0 0 200 200;" xml:space="preserve">
<style type="text/css">
	.st0{fill:url(#SVGID_1_);}
	.st1{fill:url(#SVGID_2_);}
	.st2{fill:url(#SVGID_3_);}
	.st3{fill:#EAE9E8;}
	.st4{fill:url(#SVGID_4_);}
	.st5{fill:url(#SVGID_5_);}
	.st6{fill:url(#SVGID_6_);}
	.st7{fill:url(#SVGID_7_);}
	.st8{fill:url(#SVGID_8_);}
	.st9{fill:url(#SVGID_9_);}
	.st10{fill:url(#SVGID_10_);}
	.st11{fill:url(#SVGID_11_);}
	.st12{fill:url(#SVGID_12_);}
	.st13{fill:url(#SVGID_13_);}
	.st14{fill:url(#SVGID_14_);}
	.st15{fill:#FFFFFF;}
	.st16{fill:none;stroke:#FFFFFF;stroke-width:5;stroke-miterlimit:10;}
	.st17{fill-rule:evenodd;clip-rule:evenodd;fill:#FF2D20;}
	.st18{fill:#00B49C;}
	.st19{fill:#416579;}
</style>
<linearGradient id="SVGID_1_" gradientUnits="userSpaceOnUse" x1="0.3243" y1="100.7768" x2="199.7358" y2="100.7768" gradientTransform="matrix(1 1.092563e-03 -1.092563e-03 1 2.770568e-02 -0.4316)">
	<stop  offset="0" style="stop-color:#CC006C"/>
	<stop  offset="1" style="stop-color:#F6416C"/>
</linearGradient>
<circle class="st0" cx="99.9" cy="100.5" r="99.7"/>
<path class="st15" d="M142.1,46.8h-14c-1.2-3-4-5-7.4-5H83.1c-2.1,0-4.1,0.8-5.6,2.3c-0.8,0.8-1.4,1.7-1.7,2.6h-14
	c-2.5,0-4.6,2-4.6,4.6v102.4c0,2.5,2,4.6,4.6,4.6h80.4c2.5,0,4.6-2.1,4.6-4.6V51.4C146.7,48.8,144.7,46.8,142.1,46.8z M83.1,44.9
	h37.7c2.3,0,4.3,1.6,4.8,3.8c0.1,0.3,0.1,0.7,0.1,1.1c0,1.3-0.5,2.5-1.4,3.5c-0.9,0.9-2.1,1.4-3.5,1.4H83.1c-2.7,0-4.9-2.2-4.9-4.9
	c0-0.4,0-0.7,0.1-1.1c0,0,0,0,0,0l0-0.1c0.2-0.8,0.6-1.6,1.3-2.3C80.6,45.4,81.8,44.9,83.1,44.9z M143.7,153.7
	c0,0.8-0.7,1.5-1.5,1.5H61.8c-0.8,0-1.5-0.7-1.5-1.5V51.4c0-0.8,0.7-1.5,1.5-1.5h13.4c0,0.3,0.1,0.6,0.1,0.9c0,0.2,0,0.5,0.1,0.7
	c0.1,0.3,0.2,0.6,0.3,0.9c0.1,0.2,0.1,0.4,0.2,0.6c0.1,0.3,0.3,0.5,0.4,0.8c0.1,0.2,0.2,0.4,0.3,0.5c0.2,0.3,0.4,0.5,0.6,0.7
	c0.1,0.1,0.2,0.3,0.4,0.4c0.2,0.2,0.5,0.4,0.7,0.6c0.1,0.1,0.3,0.3,0.4,0.4c0.3,0.2,0.6,0.3,0.9,0.5c0.2,0.1,0.3,0.2,0.5,0.3
	c0.3,0.1,0.7,0.2,1.1,0.3c0.1,0,0.3,0.1,0.4,0.1c0.5,0.1,1.1,0.2,1.6,0.2h37.7c2.1,0,4.1-0.8,5.6-2.3c0.4-0.4,0.7-0.8,1-1.2
	c0.1-0.2,0.2-0.4,0.3-0.5c0.2-0.3,0.3-0.5,0.4-0.8c0.1-0.2,0.1-0.4,0.2-0.7c0.1-0.3,0.2-0.5,0.3-0.8c0-0.2,0-0.4,0.1-0.7
	c0-0.3,0.1-0.6,0.1-0.9h13.4c0.8,0,1.5,0.7,1.5,1.5L143.7,153.7L143.7,153.7z M66,92.2h17.2V75H66V92.2z M69.1,78.1h11.2v11.2H69.1
	V78.1z M118.9,81.1H87.6v-3h31.2V81.1z M87.6,86.2h48.7v3H87.6V86.2z M66,115.1h17.2V97.9H66V115.1z M69.1,100.9h11.2v11.2H69.1
	V100.9z M118.9,103.9H87.6v-3h31.2V103.9z M87.6,109h48.7v3H87.6V109z M66,137.9h17.2v-17.2H66V137.9z M69.1,123.7h11.2v11.2H69.1
	V123.7z M118.9,126.8H87.6v-3h31.2V126.8z M87.6,131.9h48.7v3H87.6V131.9z"/>
</svg>
