<?xml version="1.0" encoding="utf-8"?>
<!-- Generator: Adobe Illustrator 24.1.1, SVG Export Plug-In . SVG Version: 6.00 Build 0)  -->
<svg version="1.1" id="Layer_1" xmlns="http://www.w3.org/2000/svg" xmlns:xlink="http://www.w3.org/1999/xlink" x="0px" y="0px"
	 viewBox="0 0 200 200" style="enable-background:new 0 0 200 200;" xml:space="preserve">
<style type="text/css">
	.st0{fill:#F43127;}
	.st1{fill:#43566B;}
</style>
<path class="st0" d="M51.16,65.33h20.95v20.95H51.16V65.33z M51.16,120.01h20.95V99.05H51.16V120.01z M51.16,153.72h20.95v-20.95
	H51.16V153.72z"/>
<path class="st1" d="M161.26,21.43h-20.64c-1.74-4.4-5.97-7.35-10.88-7.35H74.17c-3.14,0-6.09,1.22-8.31,3.45
	c-1.14,1.14-2.01,2.48-2.58,3.9H42.66c-3.72,0-6.74,3.02-6.74,6.74V179.3c0,3.72,3.02,6.74,6.74,6.74h118.6
	c3.72,0,6.74-3.03,6.74-6.74V28.18C168,24.46,164.98,21.43,161.26,21.43z M74.17,18.58h55.57c3.41,0,6.31,2.3,7.06,5.66
	c0.13,0.51,0.2,1.05,0.2,1.6c0,1.94-0.75,3.75-2.14,5.12c-1.35,1.37-3.17,2.12-5.12,2.12H74.17c-4,0-7.26-3.25-7.26-7.24
	c0-0.54,0.07-1.06,0.2-1.56c0.01-0.02,0.01-0.05,0.01-0.07l0.04-0.15c0.29-1.24,0.93-2.4,1.88-3.35
	C70.41,19.34,72.24,18.58,74.17,18.58z M163.5,179.3c0,1.24-1.01,2.25-2.25,2.25H42.66c-1.24,0-2.25-1.01-2.25-2.25V28.18
	c0-1.24,1.01-2.25,2.25-2.25h19.76c0,0.44,0.09,0.85,0.14,1.28c0.04,0.34,0.04,0.69,0.11,1.03c0.09,0.44,0.26,0.85,0.4,1.27
	c0.1,0.31,0.17,0.63,0.29,0.93c0.18,0.42,0.42,0.8,0.65,1.2c0.15,0.26,0.27,0.54,0.44,0.79c0.26,0.39,0.58,0.72,0.89,1.08
	c0.19,0.21,0.34,0.45,0.55,0.66c0.34,0.34,0.73,0.61,1.1,0.91c0.22,0.17,0.41,0.37,0.64,0.52c0.41,0.27,0.86,0.48,1.3,0.71
	c0.24,0.12,0.45,0.27,0.69,0.37c0.5,0.21,1.03,0.34,1.55,0.48c0.22,0.06,0.42,0.15,0.65,0.2c0.76,0.16,1.55,0.24,2.36,0.24h55.57
	c3.17,0,6.12-1.23,8.3-3.44c0.55-0.55,1.05-1.14,1.47-1.77c0.17-0.25,0.28-0.52,0.43-0.78c0.23-0.4,0.48-0.79,0.66-1.22
	c0.13-0.31,0.19-0.64,0.3-0.96c0.13-0.41,0.29-0.8,0.37-1.22c0.06-0.32,0.07-0.66,0.1-0.99c0.05-0.42,0.13-0.84,0.13-1.27h19.76
	c1.24,0,2.25,1.01,2.25,2.25V179.3z M48.91,88.53h25.45V63.09H48.91V88.53z M53.41,67.58h16.46v16.46H53.41V67.58z M126.95,72.08
	H80.83v-4.5h46.12V72.08z M80.83,79.54h71.93v4.5H80.83V79.54z M48.91,122.25h25.45V96.8H48.91V122.25z M53.41,101.3h16.46v16.46
	H53.41V101.3z M126.95,105.8H80.83v-4.5h46.12V105.8z M80.83,113.26h71.93v4.5H80.83V113.26z M48.91,155.97h25.45v-25.45H48.91
	V155.97z M53.41,135.02h16.46v16.46H53.41V135.02z M126.95,139.51H80.83v-4.5h46.12V139.51z M80.83,146.98h71.93v4.5H80.83V146.98z"
	/>
</svg>
