<?xml version="1.0" encoding="utf-8"?>
<!-- Generator: Adobe Illustrator 24.1.1, SVG Export Plug-In . SVG Version: 6.00 Build 0)  -->
<svg version="1.1" id="Layer_1" xmlns="http://www.w3.org/2000/svg" xmlns:xlink="http://www.w3.org/1999/xlink" x="0px" y="0px"
	 viewBox="0 0 200 200" style="enable-background:new 0 0 200 200;" xml:space="preserve">
<style type="text/css">
	.st0{fill:url(#SVGID_1_);}
	.st1{fill:none;stroke:#FFFFFF;stroke-width:5;stroke-miterlimit:10;}
	.st2{fill:#FFFFFF;}
</style>
<linearGradient id="SVGID_1_" gradientUnits="userSpaceOnUse" x1="1.2695" y1="99.5595" x2="200.6694" y2="99.5595" gradientTransform="matrix(1 1.092563e-03 1.092563e-03 -1 -0.6782 200.0492)">
	<stop  offset="0" style="stop-color:#00B1FF"/>
	<stop  offset="1" style="stop-color:#004FFF"/>
</linearGradient>
<circle class="st0" cx="100.4" cy="100.6" r="99.7"/>
<path class="st1" d="M134.6,139.1H66.3c-4.7,0-8.5-3.8-8.5-8.5V70.7c0-4.7,3.8-8.5,8.5-8.5h68.3c4.7,0,8.5,3.8,8.5,8.5v59.8
	C143.1,135.2,139.3,139.1,134.6,139.1z"/>
<path class="st1" d="M57.7,83.6h85.4"/>
<path class="st1" d="M107,101.7c4.5,4.5,4.5,11.7,0,16.1c-4.5,4.5-11.7,4.5-16.1,0c-4.5-4.5-4.5-11.7,0-16.1
	C95.3,97.2,102.5,97.2,107,101.7"/>
<path class="st1" d="M113.4,124.2l-6.4-6.4"/>
<path class="st1" d="M69.6,73.2L69.6,73.2C69.6,73.3,69.6,73.3,69.6,73.2C69.6,73.3,69.6,73.3,69.6,73.2L69.6,73.2"/>
<circle class="st2" cx="69.6" cy="73.2" r="2.6"/>
<circle class="st2" cx="78.1" cy="73.2" r="2.6"/>
<circle class="st2" cx="86.3" cy="73.2" r="2.6"/>
</svg>
