<?xml version="1.0" encoding="utf-8"?>
<!-- Generator: Adobe Illustrator 24.1.1, SVG Export Plug-In . SVG Version: 6.00 Build 0)  -->
<svg version="1.1" id="Layer_1" xmlns="http://www.w3.org/2000/svg" xmlns:xlink="http://www.w3.org/1999/xlink" x="0px" y="0px"
	 viewBox="0 0 200 200" style="enable-background:new 0 0 200 200;" xml:space="preserve">
<style type="text/css">
	.st0{fill:url(#SVGID_1_);}
	.st1{fill:url(#SVGID_2_);}
	.st2{fill:url(#SVGID_3_);}
	.st3{fill:#EAE9E8;}
	.st4{fill:url(#SVGID_4_);}
	.st5{fill:url(#SVGID_5_);}
	.st6{fill:url(#SVGID_6_);}
	.st7{fill:url(#SVGID_7_);}
	.st8{fill:url(#SVGID_8_);}
	.st9{fill:url(#SVGID_9_);}
	.st10{fill:url(#SVGID_10_);}
	.st11{fill:url(#SVGID_11_);}
	.st12{fill:url(#SVGID_12_);}
	.st13{fill:url(#SVGID_13_);}
	.st14{fill:url(#SVGID_14_);}
	.st15{fill:#FFFFFF;}
	.st16{fill:none;stroke:#FFFFFF;stroke-width:5;stroke-miterlimit:10;}
	.st17{fill-rule:evenodd;clip-rule:evenodd;fill:#FF2D20;}
	.st18{fill:#00B49C;}
	.st19{fill:#416579;}
</style>
<linearGradient id="SVGID_1_" gradientUnits="userSpaceOnUse" x1="0.4612" y1="100.2502" x2="199.8728" y2="100.2502" gradientTransform="matrix(1 1.092563e-03 -1.092563e-03 1 -0.2237 -0.1912)">
	<stop  offset="0" style="stop-color:#25BBB6"/>
	<stop  offset="1" style="stop-color:#51CC7F"/>
</linearGradient>
<circle class="st0" cx="99.8" cy="100.2" r="99.7"/>
<g>
	<path class="st16" d="M98.6,74.8v6.3"/>
	<path class="st16" d="M98.6,125.6v-6.3"/>
	<path class="st16" d="M111.2,90c-0.3-5-4.4-8.9-9.5-8.9h-7c-4.9,0-8.9,4-8.9,8.9c0,4.1,2.8,7.7,6.7,8.6l11.9,3c4,1,6.7,4.6,6.7,8.6
		c0,4.9-4,8.9-8.9,8.9h-7c-5,0-9.1-3.9-9.5-8.9"/>
	<path class="st16" d="M68.7,69.1c8-8,19-12.9,31.1-12.9c24.3,0,44,19.7,44,44c0,3.4-0.4,6.7-1.1,9.9"/>
	<path class="st16" d="M135.9,103.2l8,8l8-8"/>
	<path class="st16" d="M131,131.3c-8,8-19,12.9-31.1,12.9c-24.3,0-44-19.7-44-44c0-3.4,0.4-6.7,1.1-9.9"/>
	<path class="st16" d="M63.8,97.1l-8-8l-8,8"/>
</g>
</svg>
