<?xml version="1.0" encoding="utf-8"?>
<!-- Generator: Adobe Illustrator 24.1.1, SVG Export Plug-In . SVG Version: 6.00 Build 0)  -->
<svg version="1.1" id="Layer_1" xmlns="http://www.w3.org/2000/svg" xmlns:xlink="http://www.w3.org/1999/xlink" x="0px" y="0px"
	 viewBox="0 0 200 200" style="enable-background:new 0 0 200 200;" xml:space="preserve">
<style type="text/css">
	.st0{fill:url(#SVGID_1_);}
	.st1{fill:url(#SVGID_2_);}
	.st2{fill:url(#SVGID_3_);}
	.st3{fill:#EAE9E8;}
	.st4{fill:url(#SVGID_4_);}
	.st5{fill:url(#SVGID_5_);}
	.st6{fill:url(#SVGID_6_);}
	.st7{fill:url(#SVGID_7_);}
	.st8{fill:url(#SVGID_8_);}
	.st9{fill:url(#SVGID_9_);}
	.st10{fill:url(#SVGID_10_);}
	.st11{fill:url(#SVGID_11_);}
	.st12{fill:url(#SVGID_12_);}
	.st13{fill:url(#SVGID_13_);}
	.st14{fill:url(#SVGID_14_);}
	.st15{fill:#FFFFFF;}
	.st16{fill:none;stroke:#FFFFFF;stroke-width:5;stroke-miterlimit:10;}
	.st17{fill-rule:evenodd;clip-rule:evenodd;fill:#FF2D20;}
	.st18{fill:#00B49C;}
	.st19{fill:#416579;}
</style>
<linearGradient id="SVGID_1_" gradientUnits="userSpaceOnUse" x1="1.0209" y1="100.1196" x2="200.4324" y2="100.1196" gradientTransform="matrix(1 1.092563e-03 -1.092563e-03 1 -0.4597 -0.1912)">
	<stop  offset="0" style="stop-color:#B423D3"/>
	<stop  offset="1" style="stop-color:#602FF7"/>
</linearGradient>
<circle class="st0" cx="100.2" cy="100" r="99.7"/>
<g>
	<line class="st16" x1="141.1" y1="78.4" x2="54.4" y2="78.4"/>
	<path class="st16" d="M124.2,102.4L124.2,102.4c12,0,21.7,9.7,21.7,21.7s-9.7,21.7-21.7,21.7c-12,0-21.7-9.7-21.7-21.7l0,0
		C102.6,112.1,112.3,102.4,124.2,102.4L124.2,102.4"/>
	<path class="st16" d="M110.6,140.9H68.9l0,0c-8,0-14.4-6.5-14.4-14.4l0,0V68.8l0,0c0-8,6.5-14.4,14.4-14.4h57.8l0,0
		c8,0,14.4,6.5,14.4,14.4v41.7"/>
	<line class="st16" x1="125.3" y1="113.5" x2="125.3" y2="125"/>
	<line class="st16" x1="115.9" y1="125" x2="125.3" y2="125"/>
	<path class="st16" d="M72.7,95.2L72.7,95.2c0,0.1-0.1,0.2-0.2,0.2s-0.2-0.1-0.2-0.2s0.1-0.2,0.2-0.2"/>
	<path class="st16" d="M72.5,95L72.5,95c0.1,0,0.2,0.1,0.2,0.2l0,0"/>
	<path class="st16" d="M89.6,95.2L89.6,95.2c0,0.1-0.1,0.2-0.2,0.2s-0.2-0.1-0.2-0.2s0.1-0.2,0.2-0.2"/>
	<path class="st16" d="M89.3,95L89.3,95c0.1,0,0.2,0.1,0.2,0.2l0,0"/>
	<path class="st16" d="M72.7,109.7L72.7,109.7c0,0.1-0.1,0.2-0.2,0.2s-0.2-0.1-0.2-0.2s0.1-0.2,0.2-0.2"/>
	<path class="st16" d="M72.5,109.4L72.5,109.4c0.1,0,0.2,0.1,0.2,0.2l0,0"/>
	<path class="st16" d="M89.6,109.7L89.6,109.7c0,0.1-0.1,0.2-0.2,0.2s-0.2-0.1-0.2-0.2s0.1-0.2,0.2-0.2"/>
	<path class="st16" d="M89.3,109.4L89.3,109.4c0.1,0,0.2,0.1,0.2,0.2l0,0"/>
	<path class="st16" d="M106.4,95.2L106.4,95.2c0,0.1-0.1,0.2-0.2,0.2c-0.1,0-0.2-0.1-0.2-0.2s0.1-0.2,0.2-0.2"/>
	<path class="st16" d="M106.2,95L106.2,95c0.1,0,0.2,0.1,0.2,0.2l0,0"/>
	<path class="st16" d="M72.7,124.1L72.7,124.1c0,0.1-0.1,0.2-0.2,0.2s-0.2-0.1-0.2-0.2c0-0.1,0.1-0.2,0.2-0.2"/>
	<path class="st16" d="M72.5,123.9L72.5,123.9c0.1,0,0.2,0.1,0.2,0.2l0,0"/>
	<path class="st16" d="M89.6,124.1L89.6,124.1c0,0.1-0.1,0.2-0.2,0.2s-0.2-0.1-0.2-0.2c0-0.1,0.1-0.2,0.2-0.2"/>
	<path class="st16" d="M89.3,123.9L89.3,123.9c0.1,0,0.2,0.1,0.2,0.2l0,0"/>
</g>
</svg>
