<?xml version="1.0" encoding="utf-8"?>
<!-- Generator: Adobe Illustrator 24.1.1, SVG Export Plug-In . SVG Version: 6.00 Build 0)  -->
<svg version="1.1" id="Layer_1" xmlns="http://www.w3.org/2000/svg" xmlns:xlink="http://www.w3.org/1999/xlink" x="0px" y="0px"
	 viewBox="0 0 200 200" style="enable-background:new 0 0 200 200;" xml:space="preserve">
<style type="text/css">
	.st0{fill:url(#SVGID_1_);}
	.st1{fill:none;stroke:#FFFFFF;stroke-width:5;stroke-miterlimit:10;}
</style>
<linearGradient id="SVGID_1_" gradientUnits="userSpaceOnUse" x1="0.3328" y1="100.1988" x2="199.7327" y2="100.1988" gradientTransform="matrix(1 1.092563e-03 1.092563e-03 -1 -0.4422 200.2895)">
	<stop  offset="0" style="stop-color:#39AEFF"/>
	<stop  offset="6.080217e-02" style="stop-color:#3E9AF8"/>
	<stop  offset="0.1901" style="stop-color:#4675EC"/>
	<stop  offset="0.326" style="stop-color:#4D57E2"/>
	<stop  offset="0.4683" style="stop-color:#5340DA"/>
	<stop  offset="0.6198" style="stop-color:#572FD4"/>
	<stop  offset="0.7869" style="stop-color:#5925D1"/>
	<stop  offset="1" style="stop-color:#5A22D0"/>
</linearGradient>
<circle class="st0" cx="99.7" cy="100.2" r="99.7"/>
<path class="st1" d="M98.1,101.7l3.1-3.1"/>
<path class="st1" d="M87.1,101.9c-0.5,2.1-0.1,4.4,1.6,6.1l1.6,1.6l1.9,1.9c2.4,2.4,6.3,2.4,8.8,0c2-2,2.4-5.1,0.9-7.6l-4.4-7.3
	C96,94.2,96.4,91,98.4,89c2.4-2.4,6.3-2.4,8.8,0l1.9,1.9l1.6,1.6c1.7,1.7,2.1,4,1.6,6.1"/>
<path class="st1" d="M121.4,80.2c0.8,0.8,0.8,2.1,0,3c-0.8,0.8-2.1,0.8-3,0s-0.8-2.1,0-3C119.3,79.4,120.6,79.4,121.4,80.2"/>
<path class="st1" d="M111,52.1h24.8c6.6,0,11.9,5.3,11.9,11.9v24.8c0,3.2-1.3,6.2-3.5,8.4l-47.6,47.6c-4.6,4.6-12.2,4.6-16.8,0
	L55.1,120c-4.6-4.6-4.6-12.2,0-16.8l47.6-47.6C104.9,53.4,107.9,52.1,111,52.1z"/>
</svg>
