<?xml version="1.0" encoding="utf-8"?>
<!-- Generator: Adobe Illustrator 24.1.1, SVG Export Plug-In . SVG Version: 6.00 Build 0)  -->
<svg version="1.1" id="Layer_1" xmlns="http://www.w3.org/2000/svg" xmlns:xlink="http://www.w3.org/1999/xlink" x="0px" y="0px"
	 viewBox="0 0 200 200" style="enable-background:new 0 0 200 200;" xml:space="preserve">
<style type="text/css">
	.st0{fill:url(#SVGID_1_);}
	.st1{fill:url(#SVGID_2_);}
	.st2{fill:url(#SVGID_3_);}
	.st3{fill:#EAE9E8;}
	.st4{fill:url(#SVGID_4_);}
	.st5{fill:url(#SVGID_5_);}
	.st6{fill:url(#SVGID_6_);}
	.st7{fill:url(#SVGID_7_);}
	.st8{fill:url(#SVGID_8_);}
	.st9{fill:url(#SVGID_9_);}
	.st10{fill:url(#SVGID_10_);}
	.st11{fill:url(#SVGID_11_);}
	.st12{fill:url(#SVGID_12_);}
	.st13{fill:url(#SVGID_13_);}
	.st14{fill:url(#SVGID_14_);}
	.st15{fill:#FFFFFF;}
	.st16{fill:none;stroke:#FFFFFF;stroke-width:5;stroke-miterlimit:10;}
	.st17{fill-rule:evenodd;clip-rule:evenodd;fill:#FF2D20;}
	.st18{fill:#00B49C;}
	.st19{fill:#416579;}
</style>
<linearGradient id="SVGID_1_" gradientUnits="userSpaceOnUse" x1="0.3758" y1="100.0547" x2="199.7874" y2="100.0547" gradientTransform="matrix(1 1.092563e-03 -1.092563e-03 1 2.770568e-02 -0.1912)">
	<stop  offset="0" style="stop-color:#97ABFF"/>
	<stop  offset="4.402041e-03" style="stop-color:#96AAFE"/>
	<stop  offset="0.1563" style="stop-color:#6E86DF"/>
	<stop  offset="0.3124" style="stop-color:#4C69C5"/>
	<stop  offset="0.472" style="stop-color:#3352B1"/>
	<stop  offset="0.6364" style="stop-color:#2042A2"/>
	<stop  offset="0.8083" style="stop-color:#16389A"/>
	<stop  offset="1" style="stop-color:#123597"/>
</linearGradient>
<circle class="st0" cx="100" cy="100" r="99.7"/>
<g>
	<circle class="st16" cx="100" cy="102.8" r="9.9"/>
	<line class="st16" x1="100" y1="68.9" x2="100" y2="74.6"/>
	<line class="st16" x1="76" y1="78.9" x2="80" y2="82.9"/>
	<line class="st16" x1="107" y1="95.8" x2="123.9" y2="78.9"/>
	<line class="st16" x1="80.2" y1="128.2" x2="119.7" y2="128.2"/>
	<line class="st16" x1="133.9" y1="102.8" x2="128.2" y2="102.8"/>
	<line class="st16" x1="71.8" y1="102.8" x2="66.1" y2="102.8"/>
	<path class="st16" d="M98.4,52L98.4,52c-27.3,1.1-48.9,23.4-49.2,50.7v0c-0.1,16.4,7.8,31.8,21.1,41.3h0c3.8,2.6,8.3,4,12.8,4h33.7
		l0,0c4.5,0.1,8.9-1.3,12.6-3.8l0,0c22.9-16.2,28.2-47.9,12-70.8C131.6,59.5,115.4,51.4,98.4,52L98.4,52z"/>
</g>
</svg>
