<?xml version="1.0" encoding="utf-8"?>
<!-- Generator: Adobe Illustrator 24.1.1, SVG Export Plug-In . SVG Version: 6.00 Build 0)  -->
<svg version="1.1" id="Layer_1" xmlns="http://www.w3.org/2000/svg" xmlns:xlink="http://www.w3.org/1999/xlink" x="0px" y="0px"
	 viewBox="0 0 200 200" style="enable-background:new 0 0 200 200;" xml:space="preserve">
<style type="text/css">
	.st0{fill:url(#SVGID_1_);}
	.st1{fill:url(#SVGID_2_);}
	.st2{fill:url(#SVGID_3_);}
	.st3{fill:#EAE9E8;}
	.st4{fill:url(#SVGID_4_);}
	.st5{fill:url(#SVGID_5_);}
	.st6{fill:url(#SVGID_6_);}
	.st7{fill:url(#SVGID_7_);}
	.st8{fill:url(#SVGID_8_);}
	.st9{fill:url(#SVGID_9_);}
	.st10{fill:url(#SVGID_10_);}
	.st11{fill:url(#SVGID_11_);}
	.st12{fill:url(#SVGID_12_);}
	.st13{fill:url(#SVGID_13_);}
	.st14{fill:url(#SVGID_14_);}
	.st15{fill:#FFFFFF;}
	.st16{fill:none;stroke:#FFFFFF;stroke-width:5;stroke-miterlimit:10;}
	.st17{fill-rule:evenodd;clip-rule:evenodd;fill:#FF2D20;}
	.st18{fill:#00B49C;}
	.st19{fill:#416579;}
</style>
<linearGradient id="SVGID_1_" gradientUnits="userSpaceOnUse" x1="0.1319" y1="99.6552" x2="199.5435" y2="99.6552" gradientTransform="matrix(1 1.092563e-03 -1.092563e-03 1 2.770568e-02 0.5299)">
	<stop  offset="0" style="stop-color:#F12711"/>
	<stop  offset="0.1259" style="stop-color:#F23411"/>
	<stop  offset="0.3569" style="stop-color:#F35512"/>
	<stop  offset="0.6671" style="stop-color:#F68B13"/>
	<stop  offset="1" style="stop-color:#FACC15"/>
</linearGradient>
<circle class="st0" cx="99.8" cy="100.3" r="99.7"/>
<g>
	<path class="st16" d="M90.8,108.8v14.5l0,0c0,2.8,2.2,5,5,5c0.8,0,1.6-0.2,2.3-0.5l8-4l0,0c1.7-0.8,2.8-2.6,2.8-4.5v-10.5l11.5-8.9
		l0,0c1.2-0.9,1.9-2.4,1.9-3.9v-7.5l0,0c0-2.8-2.2-5-5-5c0,0,0,0,0,0H82.3l0,0c-2.8,0-5,2.2-5,5V96v0c0,1.5,0.7,3,1.9,3.9
		L90.8,108.8z"/>
	<circle class="st16" cx="99.8" cy="100.3" r="50.5"/>
</g>
</svg>
