<?xml version="1.0" encoding="utf-8"?>
<!-- Generator: Adobe Illustrator 24.1.1, SVG Export Plug-In . SVG Version: 6.00 Build 0)  -->
<svg version="1.1" id="Layer_1" xmlns="http://www.w3.org/2000/svg" xmlns:xlink="http://www.w3.org/1999/xlink" x="0px" y="0px"
	 viewBox="0 0 200 200" style="enable-background:new 0 0 200 200;" xml:space="preserve">
<style type="text/css">
	.st0{fill:url(#SVGID_1_);}
	.st1{fill-rule:evenodd;clip-rule:evenodd;fill:#FFFFFF;}
	.st2{fill:#00B49C;}
	.st3{fill:#416579;}
</style>
<linearGradient id="SVGID_1_" gradientUnits="userSpaceOnUse" x1="6.599830e-02" y1="100.5931" x2="199.4641" y2="100.5931">
	<stop  offset="0" style="stop-color:#F3466C"/>
	<stop  offset="1" style="stop-color:#FB7636"/>
</linearGradient>
<ellipse class="st0" cx="99.8" cy="100.6" rx="99.7" ry="99.7"/>
<g>
	<path class="st1" d="M119.1,74.6c0,0.1,0.1,0.3,0.1,0.4v20.4c0,0.5-0.3,1-0.7,1.3l-17.1,9.9v19.6c0,0.5-0.3,1-0.7,1.3L64.8,148
		c-0.1,0-0.2,0.1-0.3,0.1h-0.1c-0.3,0.1-0.5,0.1-0.8,0h-0.1c-0.1,0-0.2-0.1-0.2-0.1l-35.8-20.6c-0.5-0.3-0.7-0.8-0.7-1.3V64.8
		c0-0.1,0-0.3,0.1-0.4c0,0,0-0.1,0.1-0.1c0-0.1,0.1-0.2,0.1-0.2C27,64,27,64,27,64c0-0.1,0.1-0.1,0.1-0.2l0.1-0.1
		c0.1,0,0.1-0.1,0.2-0.1l0,0l17.9-10.3c0.5-0.3,1-0.3,1.5,0l17.9,10.3l0,0c0.1,0,0.1,0.1,0.2,0.1l0.1,0.1c0.1,0.1,0.1,0.1,0.1,0.2
		l0.1,0.1c0,0.1,0.1,0.2,0.1,0.2s0,0.1,0.1,0.1c0,0.1,0.1,0.3,0.1,0.4v38.3l14.9-8.6V75c0-0.1,0-0.3,0.1-0.4c0,0,0-0.1,0.1-0.1
		c0-0.1,0.1-0.2,0.1-0.2l0.1-0.1c0-0.1,0.1-0.1,0.1-0.2l0.1-0.1c0.1,0,0.1-0.1,0.2-0.1l0,0l17.9-10.3c0.5-0.3,1-0.3,1.5,0l17.9,10.3
		c0.1,0,0.1,0.1,0.2,0.1l0.1,0.1c0.1,0.1,0.1,0.1,0.1,0.2l0.1,0.1C119,74.4,119.1,74.5,119.1,74.6C119.1,74.5,119.1,74.5,119.1,74.6
		z M116.2,94.5v-17l-6.3,3.6l-8.7,5v17L116.2,94.5L116.2,94.5z M98.3,125.3v-17l-8.5,4.9L65.5,127v17.2L98.3,125.3z M29.7,67.4v57.8
		l32.8,18.9V127l-17.1-9.7l0,0l0,0c-0.1,0-0.1-0.1-0.2-0.1l-0.1-0.1l0,0c0,0-0.1-0.1-0.1-0.2s-0.1-0.1-0.1-0.1l0,0
		c0-0.1-0.1-0.1-0.1-0.2s-0.1-0.1-0.1-0.2l0,0c0-0.1,0-0.1,0-0.2s0-0.1,0-0.2l0,0V76L36,71L29.7,67.4L29.7,67.4z M46.1,56.3
		l-14.9,8.6l14.9,8.6L61,64.8L46.1,56.3L46.1,56.3z M53.9,109.8l8.6-5V67.4L56.3,71l-8.7,5v37.4L53.9,109.8z M99.8,66.4L84.9,75
		l14.9,8.6l14.9-8.6C114.7,75,99.8,66.4,99.8,66.4z M98.3,86.1l-8.7-5l-6.3-3.6v17l8.6,5l6.3,3.6C98.3,103.1,98.3,86.1,98.3,86.1z
		 M64,124.4l21.9-12.5l10.9-6.2l-14.9-8.6L64.8,107l-15.6,9C49.1,116,64,124.4,64,124.4z"/>
	<g>
		<path class="st2" d="M79.9,56.4l46.5,80.1l46.5-80.1h-18.6l-27.9,48.1L98.2,56.4H79.9z"/>
		<path class="st3" d="M98.2,62.4l28.1,48.3l27.9-48.3H137L126.3,81l-10.9-18.6H98.2z"/>
	</g>
</g>
</svg>
