<?xml version="1.0" encoding="utf-8"?>
<!-- Generator: Adobe Illustrator 24.1.1, SVG Export Plug-In . SVG Version: 6.00 Build 0)  -->
<svg version="1.1" id="Layer_1" xmlns="http://www.w3.org/2000/svg" xmlns:xlink="http://www.w3.org/1999/xlink" x="0px" y="0px"
	 viewBox="0 0 200 200" style="enable-background:new 0 0 200 200;" xml:space="preserve">
<style type="text/css">
	.st0{fill:url(#SVGID_1_);}
	.st1{fill:url(#SVGID_2_);}
	.st2{fill:url(#SVGID_3_);}
	.st3{fill:#EAE9E8;}
	.st4{fill:url(#SVGID_4_);}
	.st5{fill:url(#SVGID_5_);}
	.st6{fill:url(#SVGID_6_);}
	.st7{fill:url(#SVGID_7_);}
	.st8{fill:url(#SVGID_8_);}
	.st9{fill:url(#SVGID_9_);}
	.st10{fill:url(#SVGID_10_);}
	.st11{fill:url(#SVGID_11_);}
	.st12{fill:url(#SVGID_12_);}
	.st13{fill:url(#SVGID_13_);}
	.st14{fill:url(#SVGID_14_);}
	.st15{fill:#FFFFFF;}
	.st16{fill:none;stroke:#FFFFFF;stroke-width:5;stroke-miterlimit:10;}
	.st17{fill-rule:evenodd;clip-rule:evenodd;fill:#FF2D20;}
	.st18{fill:#00B49C;}
	.st19{fill:#416579;}
</style>
<linearGradient id="SVGID_1_" gradientUnits="userSpaceOnUse" x1="0.601" y1="100.0278" x2="200.0126" y2="100.0278" gradientTransform="matrix(1 1.092563e-03 -1.092563e-03 1 -0.2237 -0.4316)">
	<stop  offset="0" style="stop-color:#16A085"/>
	<stop  offset="0.245" style="stop-color:#4DAC74"/>
	<stop  offset="1" style="stop-color:#F4D03F"/>
</linearGradient>
<circle class="st0" cx="100" cy="99.7" r="99.7"/>
<g>
	<path class="st16" d="M143.1,142.8H75.3c-6.8,0-12.3-5.5-12.3-12.3V87.4c0-6.8,5.5-12.3,12.3-12.3h67.8c6.8,0,12.3,5.5,12.3,12.3
		v43.1C155.4,137.3,149.9,142.8,143.1,142.8z"/>
	<path class="st16" d="M63,99.7h92.4"/>
	<path class="st16" d="M63,124.4h-6.2c-6.8,0-12.3-5.5-12.3-12.3V68.9c0-6.8,5.5-12.3,12.3-12.3h67.8c6.8,0,12.3,5.5,12.3,12.3v6.2"
		/>
	<path class="st16" d="M100,124.4H81.5"/>
</g>
</svg>
