<?xml version="1.0" encoding="utf-8"?>
<!-- Generator: Adobe Illustrator 24.1.1, SVG Export Plug-In . SVG Version: 6.00 Build 0)  -->
<svg version="1.1" id="Layer_1" xmlns="http://www.w3.org/2000/svg" xmlns:xlink="http://www.w3.org/1999/xlink" x="0px" y="0px"
	 viewBox="0 0 200 200" style="enable-background:new 0 0 200 200;" xml:space="preserve">
<style type="text/css">
	.st0{fill:url(#SVGID_1_);}
	.st1{fill:#FFFFFF;}
</style>
<linearGradient id="SVGID_1_" gradientUnits="userSpaceOnUse" x1="0.7698" y1="99.2782" x2="200.1697" y2="99.2782" gradientTransform="matrix(1 1.092563e-03 1.092563e-03 -1 -0.6782 199.5684)">
	<stop  offset="0" style="stop-color:#753A88"/>
	<stop  offset="1" style="stop-color:#CC2B5E"/>
</linearGradient>
<circle class="st0" cx="99.9" cy="100.4" r="99.7"/>
<g>
	<g>
		<path class="st1" d="M66.6,92.5c0,4.2-1.4,7.4-4.1,9.6c-2.7,2.2-6.6,3.3-11.7,3.3h-4.2v15h-6.5v-40h11.5c5,0,8.7,1,11.2,3.1
			C65.4,85.5,66.6,88.5,66.6,92.5z M46.7,100h3.5c3.4,0,5.8-0.6,7.4-1.8c1.6-1.2,2.4-3,2.4-5.5c0-2.3-0.7-4-2.1-5.2
			c-1.4-1.1-3.6-1.7-6.6-1.7h-4.6C46.7,85.8,46.7,100,46.7,100z"/>
		<path class="st1" d="M47.2,121h-7.5V80h12c5.1,0,9,1.1,11.6,3.2c2.6,2.1,3.9,5.3,3.9,9.4c0,4.3-1.4,7.7-4.3,10
			c-2.8,2.3-6.9,3.4-12,3.4h-3.7C47.2,106,47.2,121,47.2,121z M40.6,120h5.5v-15h4.7c4.9,0,8.7-1.1,11.4-3.2
			c2.6-2.1,3.9-5.2,3.9-9.2c0-3.9-1.2-6.7-3.6-8.6c-2.4-2-6.1-3-10.9-3h-11V120z M50.1,100.5h-4V85.4h5.1c3.1,0,5.4,0.6,6.9,1.8
			c1.5,1.2,2.3,3.1,2.3,5.6c0,2.6-0.9,4.6-2.6,5.9C56.2,99.9,53.6,100.5,50.1,100.5z M47.2,99.5h3c3.2,0,5.6-0.6,7.1-1.7
			c1.4-1.1,2.2-2.7,2.2-5.1c0-2.1-0.7-3.7-1.9-4.8c-1.3-1-3.4-1.6-6.3-1.6h-4.1V99.5z"/>
	</g>
	<g>
		<path class="st1" d="M111.6,120.5h-7.1l-6.8-23.9c-0.3-1-0.7-2.5-1.1-4.5s-0.7-3.3-0.8-4.1c-0.2,1.2-0.5,2.7-0.9,4.5
			c-0.4,1.9-0.8,3.3-1,4.2l-6.6,23.8h-7.1l-5.2-20l-5.3-20h6.7l5.7,23.3c0.9,3.8,1.5,7,1.9,9.9c0.2-1.6,0.5-3.3,0.9-5.2
			c0.4-1.9,0.8-3.5,1.1-4.7l6.5-23.4H99l6.7,23.5c0.6,2.2,1.3,5.4,2,9.7c0.3-2.6,0.9-5.9,2-10l5.7-23.3h6.6L111.6,120.5z"/>
		<path class="st1" d="M112,121h-7.9l-0.1-0.4l-6.8-23.9c-0.3-1.1-0.7-2.7-1.1-4.5c-0.1-0.5-0.2-1-0.3-1.4c-0.1,0.6-0.2,1.2-0.4,1.9
			c-0.4,2-0.8,3.3-1,4.2L87.6,121h-7.9l-0.1-0.4l-5.2-20L69,79.9h7.7l5.8,23.7c0.6,2.4,1.1,4.7,1.4,6.8c0.1-0.7,0.3-1.4,0.4-2.1
			c0.4-1.9,0.8-3.4,1.1-4.7L92,79.8h7.3l6.8,23.9c0.5,1.7,1,3.9,1.5,6.7c0.4-2,0.9-4.3,1.5-6.9l5.8-23.7h7.7l-0.2,0.6L112,121z
			 M104.8,120h6.4l10.2-39h-5.6l-5.6,22.9c-1,4-1.7,7.3-2,9.9l-0.4,3.7l-0.6-3.7c-0.7-4.2-1.4-7.5-2-9.7L98.6,81h-5.7l-6.4,23
			c-0.3,1.2-0.7,2.8-1.1,4.6c-0.4,1.9-0.7,3.6-0.9,5.2l-0.5,3.7l-0.5-3.7c-0.4-2.8-1-6.2-1.9-9.9l-5.6-23h-5.6l5.1,19.4l5.1,19.7
			h6.3l6.5-23.4c0.3-0.9,0.6-2.2,1-4.1c0.4-1.8,0.7-3.3,0.9-4.5l0.6-3.6l0.4,3.6c0.1,0.8,0.4,2.2,0.8,4.1c0.4,1.8,0.8,3.4,1.1,4.5
			L104.8,120z"/>
	</g>
	<g>
		<path class="st1" d="M152.5,120.5l-4-11.1h-15.3l-3.9,11.1h-6.9l15-40.2h7.1l15,40.2H152.5z M146.8,103.7L143,92.8
			c-0.3-0.7-0.7-1.9-1.1-3.5c-0.5-1.6-0.8-2.7-1-3.4c-0.5,2.2-1.2,4.7-2.2,7.4l-3.6,10.4H146.8z"/>
		<path class="st1" d="M160.2,121h-8l-0.1-0.3l-3.9-10.8h-14.6l-3.9,11.1h-8l0.2-0.7L137,79.8h7.8l0.1,0.3L160.2,121z M152.9,120
			h5.9l-14.6-39.2h-6.4L123.1,120h5.8l3.9-11.1h16l0.1,0.3L152.9,120z M147.5,104.2h-13.1l3.8-11.1c0.9-2.7,1.7-5.1,2.2-7.3l0.5-2.1
			l0.5,2.1c0.2,0.7,0.5,1.9,1,3.4c0.5,1.6,0.9,2.7,1.1,3.4L147.5,104.2z M135.9,103.2h10.3L142.6,93c-0.3-0.7-0.7-1.9-1.1-3.5
			c-0.2-0.6-0.3-1.1-0.5-1.6c-0.5,1.7-1,3.6-1.7,5.5L135.9,103.2z"/>
	</g>
</g>
</svg>
