<?xml version="1.0" encoding="utf-8"?>
<!-- Generator: Adobe Illustrator 24.1.1, SVG Export Plug-In . SVG Version: 6.00 Build 0)  -->
<svg version="1.1" id="Layer_1" xmlns="http://www.w3.org/2000/svg" xmlns:xlink="http://www.w3.org/1999/xlink" x="0px" y="0px"
	 viewBox="0 0 200 200" style="enable-background:new 0 0 200 200;" xml:space="preserve">
<style type="text/css">
	.st0{fill:url(#SVGID_1_);}
	.st1{fill:none;stroke:#FFFFFF;stroke-width:5;stroke-miterlimit:10;}
</style>
<linearGradient id="SVGID_1_" gradientUnits="userSpaceOnUse" x1="1.4325" y1="100.4404" x2="200.8324" y2="100.4404" gradientTransform="matrix(1 1.092563e-03 1.092563e-03 -1 -0.4422 200.5299)">
	<stop  offset="0" style="stop-color:#34A890"/>
	<stop  offset="1" style="stop-color:#22CCFF"/>
</linearGradient>
<circle class="st0" cx="100.8" cy="100.2" r="99.7"/>
<path class="st1" d="M73.8,132.5c-0.1,0-0.2,0.2-0.2,0.3c0,0.2,0.1,0.3,0.2,0.3"/>
<g>
	<path class="st1" d="M135,100.2V65.9c0-5.4-4.4-9.8-9.8-9.8H71.4c-5.4,0-9.8,4.4-9.8,9.8v24.5"/>
	<path class="st1" d="M142.3,139.3h-10.2c-4,0-7.3-3.3-7.3-7.3v-24.5c0-4,3.3-7.3,7.3-7.3h10.2c4,0,7.3,3.3,7.3,7.3V132
		C149.7,136,146.4,139.3,142.3,139.3z"/>
	<path class="st1" d="M124.8,114.8H95.9"/>
	<path class="st1" d="M86.1,144.2H61.6c-5.4,0-9.8-4.4-9.8-9.8v-34.2c0-5.4,4.4-9.8,9.8-9.8h24.5c5.4,0,9.8,4.4,9.8,9.8v34.2
		C95.9,139.8,91.5,144.2,86.1,144.2z"/>
</g>
<circle class="st1" cx="73.8" cy="132.7" r="1.1"/>
</svg>
