<?xml version="1.0" encoding="utf-8"?>
<!-- Generator: Adobe Illustrator 24.1.1, SVG Export Plug-In . SVG Version: 6.00 Build 0)  -->
<svg version="1.1" id="Layer_1" xmlns="http://www.w3.org/2000/svg" xmlns:xlink="http://www.w3.org/1999/xlink" x="0px" y="0px"
	 viewBox="0 0 200 200" style="enable-background:new 0 0 200 200;" xml:space="preserve">
<style type="text/css">
	.st0{fill:url(#SVGID_1_);}
	.st1{fill:url(#SVGID_2_);}
	.st2{fill:url(#SVGID_3_);}
	.st3{fill:#EAE9E8;}
	.st4{fill:url(#SVGID_4_);}
	.st5{fill:url(#SVGID_5_);}
	.st6{fill:url(#SVGID_6_);}
	.st7{fill:url(#SVGID_7_);}
	.st8{fill:url(#SVGID_8_);}
	.st9{fill:url(#SVGID_9_);}
	.st10{fill:url(#SVGID_10_);}
	.st11{fill:url(#SVGID_11_);}
	.st12{fill:url(#SVGID_12_);}
	.st13{fill:url(#SVGID_13_);}
	.st14{fill:url(#SVGID_14_);}
	.st15{fill:#FFFFFF;}
	.st16{fill:none;stroke:#FFFFFF;stroke-width:5;stroke-miterlimit:10;}
	.st17{fill-rule:evenodd;clip-rule:evenodd;fill:#FF2D20;}
	.st18{fill:#00B49C;}
	.st19{fill:#416579;}
</style>
<linearGradient id="SVGID_1_" gradientUnits="userSpaceOnUse" x1="-7.235402e-02" y1="98.8589" x2="199.3392" y2="98.8589" gradientTransform="matrix(1 1.092563e-03 -1.092563e-03 1 2.770568e-02 0.2895)">
	<stop  offset="0" style="stop-color:#8E2DE2"/>
	<stop  offset="1" style="stop-color:#4A00E0"/>
</linearGradient>
<circle class="st0" cx="99.6" cy="99.3" r="99.7"/>
<g>
	<path class="st16" d="M137.9,142.4H61.2c-5.3,0-9.6-4.3-9.6-9.6V65.7c0-5.3,4.3-9.6,9.6-9.6h76.6c5.3,0,9.6,4.3,9.6,9.6v67.1
		C147.5,138.1,143.2,142.4,137.9,142.4z"/>
	<path class="st16" d="M51.7,80.1h95.8"/>
	<path class="st16" d="M65,68.1C64.9,68.1,64.9,68.1,65,68.1C64.9,68.1,64.9,68.1,65,68.1C65,68.1,65,68.1,65,68.1
		C65,68.1,65,68.1,65,68.1"/>
	<path class="st16" d="M77.1,68.1C77.1,68.1,77.1,68.1,77.1,68.1C77.1,68.1,77.1,68.1,77.1,68.1C77.2,68.1,77.2,68.1,77.1,68.1
		C77.2,68.1,77.2,68.1,77.1,68.1"/>
	<path class="st16" d="M89.3,68.1C89.3,68.1,89.3,68.1,89.3,68.1C89.3,68.1,89.3,68.1,89.3,68.1C89.3,68.1,89.3,68.1,89.3,68.1
		C89.3,68.1,89.3,68.1,89.3,68.1"/>
	<path class="st16" d="M107.7,108.8v-6.2c0-5.2-5.3-9.8-11.1-7.7c-3.3,1.2-5.3,4.6-5.3,8.1v5.8"/>
	<path class="st16" d="M109.1,125.6H90c-2.6,0-4.8-2.1-4.8-4.8v-7.2c0-2.6,2.1-4.8,4.8-4.8h19.2c2.6,0,4.8,2.1,4.8,4.8v7.2
		C113.9,123.5,111.8,125.6,109.1,125.6z"/>
</g>
</svg>
