<?xml version="1.0" encoding="utf-8"?>
<!-- Generator: Adobe Illustrator 24.1.1, SVG Export Plug-In . SVG Version: 6.00 Build 0)  -->
<svg version="1.1" id="Layer_1" xmlns="http://www.w3.org/2000/svg" xmlns:xlink="http://www.w3.org/1999/xlink" x="0px" y="0px"
	 viewBox="0 0 200 200" style="enable-background:new 0 0 200 200;" xml:space="preserve">
<style type="text/css">
	.st0{fill:url(#SVGID_1_);}
	.st1{fill:url(#SVGID_2_);}
	.st2{fill:url(#SVGID_3_);}
	.st3{fill:#EAE9E8;}
	.st4{fill:url(#SVGID_4_);}
	.st5{fill:url(#SVGID_5_);}
	.st6{fill:url(#SVGID_6_);}
	.st7{fill:url(#SVGID_7_);}
	.st8{fill:url(#SVGID_8_);}
	.st9{fill:url(#SVGID_9_);}
	.st10{fill:url(#SVGID_10_);}
	.st11{fill:url(#SVGID_11_);}
	.st12{fill:url(#SVGID_12_);}
	.st13{fill:url(#SVGID_13_);}
	.st14{fill:url(#SVGID_14_);}
	.st15{fill:#FFFFFF;}
	.st16{fill:none;stroke:#FFFFFF;stroke-width:5;stroke-miterlimit:10;}
	.st17{fill-rule:evenodd;clip-rule:evenodd;fill:#FF2D20;}
	.st18{fill:#00B49C;}
	.st19{fill:#416579;}
</style>
<linearGradient id="SVGID_1_" gradientUnits="userSpaceOnUse" x1="1.4805" y1="99.9169" x2="200.8921" y2="99.9169" gradientTransform="matrix(1 1.092563e-03 -1.092563e-03 1 -0.4597 0.5299)">
	<stop  offset="0" style="stop-color:#F97316"/>
	<stop  offset="1" style="stop-color:#FACC15"/>
</linearGradient>
<circle class="st0" cx="100.6" cy="100.6" r="99.7"/>
<g>
	<path class="st16" d="M136.8,138.8h-27.6c-1.2,0-2.1-1-2.1-2.1V135c0-4.9,4-8.9,8.9-8.9H130c4.9,0,8.9,4,8.9,8.9v1.7
		C138.9,137.9,137.9,138.8,136.8,138.8z"/>
	<path class="st16" d="M122.9,115.4c-4.7,0-8.5-3.8-8.5-8.5s3.8-8.5,8.5-8.5c4.7,0,8.5,3.8,8.5,8.5
		C131.5,111.6,127.7,115.4,122.9,115.4C123,115.4,123,115.4,122.9,115.4z"/>
	<path class="st16" d="M70.8,138.8c-4.7,0-8.5-3.8-8.5-8.5"/>
	<path class="st16" d="M62.3,130.3V70.8"/>
	<path class="st16" d="M70.8,138.8h21.3"/>
	<path class="st16" d="M130.4,62.3c4.7,0,8.5,3.8,8.5,8.5"/>
	<path class="st16" d="M138.9,70.8v21.3"/>
	<path class="st16" d="M130.4,62.3H70.8"/>
	<path class="st16" d="M70.8,62.3c-4.7,0-8.5,3.8-8.5,8.5"/>
	<path class="st16" d="M107,136.7V135c0-4.9,4-8.9,8.9-8.9H130c4.9,0,8.9,4,8.9,8.9v1.7c0,1.2-1,2.1-2.1,2.1h-27.6
		C107.9,138.8,107,137.9,107,136.7z"/>
	<path class="st16" d="M122.9,115.4c4.7,0,8.5-3.8,8.5-8.5c0-4.7-3.8-8.5-8.5-8.5c-4.7,0-8.5,3.8-8.5,8.5
		C114.4,111.6,118.2,115.4,122.9,115.4C122.9,115.4,122.9,115.4,122.9,115.4z"/>
	<path class="st16" d="M62.3,83.5h76.6"/>
</g>
</svg>
